<mxfile host="app.diagrams.net" modified="2024-04-29T11:57:22.792Z" agent="Mozilla/5.0 (Windows NT 10.0; Win64; x64) AppleWebKit/537.36 (KHTML, like Gecko) Chrome/124.0.0.0 Safari/537.36" etag="hiw093w6rRy1vW7zQkMu" version="24.3.1" type="github">
  <diagram name="Page-1" id="GKKpgslyRueWw_3blWbr">
    <mxGraphModel dx="1434" dy="746" grid="1" gridSize="10" guides="1" tooltips="1" connect="1" arrows="1" fold="1" page="1" pageScale="1" pageWidth="850" pageHeight="1100" math="0" shadow="0">
      <root>
        <mxCell id="0" />
        <mxCell id="1" parent="0" />
        <mxCell id="7zp3B6DRQwShtKf0ib55-1" value="&lt;span style=&quot;font-family: Arial, sans-serif; position: relative; top: 0.5pt;&quot;&gt;&lt;font style=&quot;font-size: 20px;&quot;&gt;Hospital&amp;nbsp;&lt;/font&gt;&lt;/span&gt;" style="text;html=1;align=center;verticalAlign=middle;resizable=0;points=[];autosize=1;strokeColor=none;fillColor=none;fontColor=#FFFFFF;" parent="1" vertex="1">
          <mxGeometry x="375" y="33" width="100" height="40" as="geometry" />
        </mxCell>
        <mxCell id="7zp3B6DRQwShtKf0ib55-2" value="&lt;span style=&quot;font-family: Arial, sans-serif; position: relative; top: 0.5pt;&quot;&gt;&lt;font style=&quot;font-size: 12px;&quot;&gt;Consultants&amp;nbsp;&lt;/font&gt;&lt;/span&gt;" style="rounded=0;whiteSpace=wrap;html=1;fontColor=#FFFFFF;" parent="1" vertex="1">
          <mxGeometry x="600" y="480" width="80" height="40" as="geometry" />
        </mxCell>
        <mxCell id="7zp3B6DRQwShtKf0ib55-3" value="drug" style="rounded=0;whiteSpace=wrap;html=1;fontColor=#FFFFFF;" parent="1" vertex="1">
          <mxGeometry x="385" y="510" width="80" height="40" as="geometry" />
        </mxCell>
        <mxCell id="7zp3B6DRQwShtKf0ib55-4" value="nurse" style="rounded=0;whiteSpace=wrap;html=1;fontColor=#FFFFFF;" parent="1" vertex="1">
          <mxGeometry x="120" y="480" width="80" height="40" as="geometry" />
        </mxCell>
        <mxCell id="7zp3B6DRQwShtKf0ib55-5" value="&lt;span style=&quot;font-family: Arial, sans-serif; position: relative; top: 0.5pt;&quot;&gt;&lt;font style=&quot;font-size: 12px;&quot;&gt;patients&lt;/font&gt;&lt;/span&gt;" style="rounded=0;whiteSpace=wrap;html=1;fontColor=#FFFFFF;" parent="1" vertex="1">
          <mxGeometry x="600" y="240" width="80" height="40" as="geometry" />
        </mxCell>
        <mxCell id="7zp3B6DRQwShtKf0ib55-6" value="&lt;span style=&quot;font-family: Arial, sans-serif; position: relative; top: 0.5pt;&quot;&gt;&lt;font style=&quot;font-size: 12px;&quot;&gt;ward&lt;/font&gt;&lt;/span&gt;" style="rounded=0;whiteSpace=wrap;html=1;fontColor=#FFFFFF;" parent="1" vertex="1">
          <mxGeometry x="130" y="240" width="80" height="40" as="geometry" />
        </mxCell>
        <mxCell id="7zp3B6DRQwShtKf0ib55-7" value="&lt;span style=&quot;font-family: Arial, sans-serif; position: relative; top: 0.5pt;&quot;&gt;&lt;font style=&quot;font-size: 12px;&quot;&gt;Name&lt;/font&gt;&lt;/span&gt;" style="ellipse;whiteSpace=wrap;html=1;fontColor=#FFFFFF;" parent="1" vertex="1">
          <mxGeometry x="10" y="235" width="80" height="50" as="geometry" />
        </mxCell>
        <mxCell id="7zp3B6DRQwShtKf0ib55-8" value="&lt;span style=&quot;font-family: Arial, sans-serif; position: relative; top: 0.5pt;&quot;&gt;&lt;font style=&quot;font-size: 12px;&quot;&gt;ward_id&lt;/font&gt;&lt;/span&gt;&lt;hr&gt;" style="ellipse;whiteSpace=wrap;html=1;fontColor=#FFFFFF;" parent="1" vertex="1">
          <mxGeometry x="125" y="150" width="90" height="50" as="geometry" />
        </mxCell>
        <mxCell id="7zp3B6DRQwShtKf0ib55-9" value="" style="endArrow=none;html=1;rounded=0;exitX=1;exitY=0.5;exitDx=0;exitDy=0;entryX=0;entryY=0.5;entryDx=0;entryDy=0;" parent="1" source="7zp3B6DRQwShtKf0ib55-7" target="7zp3B6DRQwShtKf0ib55-6" edge="1">
          <mxGeometry width="50" height="50" relative="1" as="geometry">
            <mxPoint x="400" y="250" as="sourcePoint" />
            <mxPoint x="450" y="200" as="targetPoint" />
          </mxGeometry>
        </mxCell>
        <mxCell id="7zp3B6DRQwShtKf0ib55-10" value="" style="endArrow=none;html=1;rounded=0;entryX=0.5;entryY=0;entryDx=0;entryDy=0;exitX=0.5;exitY=1;exitDx=0;exitDy=0;" parent="1" source="7zp3B6DRQwShtKf0ib55-8" target="7zp3B6DRQwShtKf0ib55-6" edge="1">
          <mxGeometry width="50" height="50" relative="1" as="geometry">
            <mxPoint x="480" y="250" as="sourcePoint" />
            <mxPoint x="530" y="200" as="targetPoint" />
          </mxGeometry>
        </mxCell>
        <mxCell id="7zp3B6DRQwShtKf0ib55-11" value="&lt;span style=&quot;font-family: Arial, sans-serif; position: relative; top: 0.5pt;&quot;&gt;&lt;font color=&quot;#ffffff&quot; style=&quot;font-size: 12px;&quot;&gt;Date_Of_Birth&lt;/font&gt;&lt;/span&gt;" style="ellipse;whiteSpace=wrap;html=1;" parent="1" vertex="1">
          <mxGeometry x="730" y="237.5" width="90" height="45" as="geometry" />
        </mxCell>
        <mxCell id="7zp3B6DRQwShtKf0ib55-12" value="&lt;span style=&quot;font-family: Arial, sans-serif; position: relative; top: 0.5pt;&quot;&gt;&lt;font color=&quot;#ffffff&quot; style=&quot;font-size: 12px;&quot;&gt;Patient_id&lt;/font&gt;&lt;/span&gt;&lt;hr&gt;" style="ellipse;whiteSpace=wrap;html=1;" parent="1" vertex="1">
          <mxGeometry x="605" y="150" width="70" height="50" as="geometry" />
        </mxCell>
        <mxCell id="7zp3B6DRQwShtKf0ib55-13" value="&lt;span style=&quot;font-family: Arial, sans-serif; position: relative; top: 0.5pt;&quot;&gt;&lt;font style=&quot;font-size: 12px;&quot; color=&quot;#ffffff&quot;&gt;name&lt;/font&gt;&lt;/span&gt;" style="ellipse;whiteSpace=wrap;html=1;" parent="1" vertex="1">
          <mxGeometry x="705" y="170" width="70" height="50" as="geometry" />
        </mxCell>
        <mxCell id="7zp3B6DRQwShtKf0ib55-14" value="" style="endArrow=none;html=1;rounded=0;exitX=1;exitY=0;exitDx=0;exitDy=0;entryX=0;entryY=1;entryDx=0;entryDy=0;" parent="1" source="7zp3B6DRQwShtKf0ib55-5" target="7zp3B6DRQwShtKf0ib55-13" edge="1">
          <mxGeometry width="50" height="50" relative="1" as="geometry">
            <mxPoint x="400" y="250" as="sourcePoint" />
            <mxPoint x="450" y="200" as="targetPoint" />
          </mxGeometry>
        </mxCell>
        <mxCell id="7zp3B6DRQwShtKf0ib55-15" value="" style="endArrow=none;html=1;rounded=0;exitX=0.5;exitY=0;exitDx=0;exitDy=0;entryX=0.5;entryY=1;entryDx=0;entryDy=0;" parent="1" source="7zp3B6DRQwShtKf0ib55-5" target="7zp3B6DRQwShtKf0ib55-12" edge="1">
          <mxGeometry width="50" height="50" relative="1" as="geometry">
            <mxPoint x="400" y="250" as="sourcePoint" />
            <mxPoint x="450" y="200" as="targetPoint" />
          </mxGeometry>
        </mxCell>
        <mxCell id="7zp3B6DRQwShtKf0ib55-16" value="" style="endArrow=none;html=1;rounded=0;exitX=1;exitY=0.5;exitDx=0;exitDy=0;entryX=0;entryY=0.5;entryDx=0;entryDy=0;" parent="1" source="7zp3B6DRQwShtKf0ib55-5" target="7zp3B6DRQwShtKf0ib55-11" edge="1">
          <mxGeometry width="50" height="50" relative="1" as="geometry">
            <mxPoint x="400" y="250" as="sourcePoint" />
            <mxPoint x="450" y="200" as="targetPoint" />
          </mxGeometry>
        </mxCell>
        <mxCell id="7zp3B6DRQwShtKf0ib55-17" value="host" style="rhombus;whiteSpace=wrap;html=1;" parent="1" vertex="1">
          <mxGeometry x="380" y="180" width="80" height="80" as="geometry" />
        </mxCell>
        <mxCell id="7zp3B6DRQwShtKf0ib55-19" value="" style="endArrow=none;html=1;rounded=0;exitX=1;exitY=0.5;exitDx=0;exitDy=0;entryX=0;entryY=0.5;entryDx=0;entryDy=0;" parent="1" source="7zp3B6DRQwShtKf0ib55-6" target="7zp3B6DRQwShtKf0ib55-17" edge="1">
          <mxGeometry width="50" height="50" relative="1" as="geometry">
            <mxPoint x="400" y="250" as="sourcePoint" />
            <mxPoint x="450" y="200" as="targetPoint" />
          </mxGeometry>
        </mxCell>
        <mxCell id="7zp3B6DRQwShtKf0ib55-22" value="1" style="edgeLabel;html=1;align=center;verticalAlign=middle;resizable=0;points=[];" parent="7zp3B6DRQwShtKf0ib55-19" vertex="1" connectable="0">
          <mxGeometry x="-0.6977" y="3" relative="1" as="geometry">
            <mxPoint x="-5" y="-11" as="offset" />
          </mxGeometry>
        </mxCell>
        <mxCell id="7zp3B6DRQwShtKf0ib55-23" value="&lt;span style=&quot;font-family: Arial, sans-serif; position: relative; top: 0.5pt;&quot;&gt;&lt;font color=&quot;#ffffff&quot; style=&quot;font-size: 12px;&quot;&gt;examined&amp;nbsp;&lt;/font&gt;&lt;/span&gt;" style="rhombus;whiteSpace=wrap;html=1;" parent="1" vertex="1">
          <mxGeometry x="600" y="340" width="80" height="80" as="geometry" />
        </mxCell>
        <mxCell id="7zp3B6DRQwShtKf0ib55-24" value="" style="endArrow=none;html=1;rounded=0;exitX=0.5;exitY=0;exitDx=0;exitDy=0;entryX=0.5;entryY=1;entryDx=0;entryDy=0;" parent="1" source="7zp3B6DRQwShtKf0ib55-2" target="7zp3B6DRQwShtKf0ib55-23" edge="1">
          <mxGeometry width="50" height="50" relative="1" as="geometry">
            <mxPoint x="400" y="250" as="sourcePoint" />
            <mxPoint x="450" y="200" as="targetPoint" />
          </mxGeometry>
        </mxCell>
        <mxCell id="9rYdHjrcT93f6RZKISob-3" value="M" style="edgeLabel;html=1;align=center;verticalAlign=middle;resizable=0;points=[];" vertex="1" connectable="0" parent="7zp3B6DRQwShtKf0ib55-24">
          <mxGeometry x="-0.3667" y="-1" relative="1" as="geometry">
            <mxPoint x="9" y="-1" as="offset" />
          </mxGeometry>
        </mxCell>
        <mxCell id="7zp3B6DRQwShtKf0ib55-25" value="" style="endArrow=none;html=1;rounded=0;exitX=0.5;exitY=0;exitDx=0;exitDy=0;entryX=0.5;entryY=1;entryDx=0;entryDy=0;" parent="1" source="7zp3B6DRQwShtKf0ib55-23" target="7zp3B6DRQwShtKf0ib55-5" edge="1">
          <mxGeometry width="50" height="50" relative="1" as="geometry">
            <mxPoint x="400" y="250" as="sourcePoint" />
            <mxPoint x="450" y="200" as="targetPoint" />
          </mxGeometry>
        </mxCell>
        <mxCell id="7zp3B6DRQwShtKf0ib55-27" value="M" style="edgeLabel;html=1;align=center;verticalAlign=middle;resizable=0;points=[];" parent="7zp3B6DRQwShtKf0ib55-25" vertex="1" connectable="0">
          <mxGeometry x="0.5667" y="-4" relative="1" as="geometry">
            <mxPoint x="6" y="-3" as="offset" />
          </mxGeometry>
        </mxCell>
        <mxCell id="7zp3B6DRQwShtKf0ib55-28" value="&lt;span style=&quot;font-family: Arial, sans-serif; position: relative; top: 0.5pt;&quot;&gt;&lt;font style=&quot;font-size: 12px;&quot; color=&quot;#ffffff&quot;&gt;Name&lt;/font&gt;&lt;/span&gt;" style="ellipse;whiteSpace=wrap;html=1;" parent="1" vertex="1">
          <mxGeometry x="730" y="560" width="70" height="50" as="geometry" />
        </mxCell>
        <mxCell id="7zp3B6DRQwShtKf0ib55-29" value="&lt;span style=&quot;font-family: Arial, sans-serif; position: relative; top: 0.5pt;&quot;&gt;&lt;font color=&quot;#ffffff&quot; style=&quot;font-size: 12px;&quot;&gt;Consultant_id&lt;/font&gt;&lt;/span&gt;&lt;hr&gt;" style="ellipse;whiteSpace=wrap;html=1;" parent="1" vertex="1">
          <mxGeometry x="730" y="475" width="95" height="50" as="geometry" />
        </mxCell>
        <mxCell id="7zp3B6DRQwShtKf0ib55-30" value="" style="endArrow=none;html=1;rounded=0;exitX=-0.029;exitY=0.34;exitDx=0;exitDy=0;exitPerimeter=0;entryX=1;entryY=1;entryDx=0;entryDy=0;" parent="1" source="7zp3B6DRQwShtKf0ib55-28" target="7zp3B6DRQwShtKf0ib55-2" edge="1">
          <mxGeometry width="50" height="50" relative="1" as="geometry">
            <mxPoint x="400" y="250" as="sourcePoint" />
            <mxPoint x="450" y="200" as="targetPoint" />
          </mxGeometry>
        </mxCell>
        <mxCell id="7zp3B6DRQwShtKf0ib55-31" value="" style="endArrow=none;html=1;rounded=0;exitX=0;exitY=0.5;exitDx=0;exitDy=0;entryX=1;entryY=0.5;entryDx=0;entryDy=0;" parent="1" source="7zp3B6DRQwShtKf0ib55-29" target="7zp3B6DRQwShtKf0ib55-2" edge="1">
          <mxGeometry width="50" height="50" relative="1" as="geometry">
            <mxPoint x="400" y="250" as="sourcePoint" />
            <mxPoint x="450" y="200" as="targetPoint" />
          </mxGeometry>
        </mxCell>
        <mxCell id="7zp3B6DRQwShtKf0ib55-32" value="&lt;span style=&quot;font-size: 12px; font-family: Arial, sans-serif; position: relative; top: 0.5pt;&quot;&gt;address&lt;/span&gt;" style="ellipse;whiteSpace=wrap;html=1;fontColor=default;fontSize=12;" parent="1" vertex="1">
          <mxGeometry x="15" y="475" width="65" height="45" as="geometry" />
        </mxCell>
        <mxCell id="7zp3B6DRQwShtKf0ib55-33" value="&lt;span style=&quot;font-size: 12px; font-family: Arial, sans-serif; position: relative; top: 0.5pt;&quot;&gt;number&lt;/span&gt;&lt;hr&gt;" style="ellipse;whiteSpace=wrap;html=1;fontColor=default;fontSize=12;" parent="1" vertex="1">
          <mxGeometry x="60" y="540" width="70" height="40" as="geometry" />
        </mxCell>
        <mxCell id="7zp3B6DRQwShtKf0ib55-34" value="&lt;span style=&quot;font-size: 12px; font-family: Arial, sans-serif; position: relative; top: 0.5pt;&quot;&gt;name&lt;/span&gt;&lt;hr&gt;" style="ellipse;whiteSpace=wrap;html=1;fontColor=default;fontSize=12;" parent="1" vertex="1">
          <mxGeometry x="22.5" y="420" width="60" height="40" as="geometry" />
        </mxCell>
        <mxCell id="7zp3B6DRQwShtKf0ib55-35" value="" style="endArrow=none;html=1;rounded=0;exitX=0;exitY=1;exitDx=0;exitDy=0;entryX=0.643;entryY=0.075;entryDx=0;entryDy=0;entryPerimeter=0;" parent="1" source="7zp3B6DRQwShtKf0ib55-4" target="7zp3B6DRQwShtKf0ib55-33" edge="1">
          <mxGeometry width="50" height="50" relative="1" as="geometry">
            <mxPoint x="400" y="250" as="sourcePoint" />
            <mxPoint x="450" y="200" as="targetPoint" />
          </mxGeometry>
        </mxCell>
        <mxCell id="7zp3B6DRQwShtKf0ib55-36" value="" style="endArrow=none;html=1;rounded=0;exitX=0;exitY=0.5;exitDx=0;exitDy=0;entryX=1;entryY=0.5;entryDx=0;entryDy=0;" parent="1" source="7zp3B6DRQwShtKf0ib55-4" target="7zp3B6DRQwShtKf0ib55-32" edge="1">
          <mxGeometry width="50" height="50" relative="1" as="geometry">
            <mxPoint x="400" y="250" as="sourcePoint" />
            <mxPoint x="450" y="200" as="targetPoint" />
          </mxGeometry>
        </mxCell>
        <mxCell id="7zp3B6DRQwShtKf0ib55-37" value="" style="endArrow=none;html=1;rounded=0;exitX=0;exitY=0;exitDx=0;exitDy=0;entryX=0.992;entryY=0.7;entryDx=0;entryDy=0;entryPerimeter=0;" parent="1" source="7zp3B6DRQwShtKf0ib55-4" target="7zp3B6DRQwShtKf0ib55-34" edge="1">
          <mxGeometry width="50" height="50" relative="1" as="geometry">
            <mxPoint x="400" y="250" as="sourcePoint" />
            <mxPoint x="450" y="200" as="targetPoint" />
          </mxGeometry>
        </mxCell>
        <mxCell id="7zp3B6DRQwShtKf0ib55-38" value="supervise" style="rhombus;whiteSpace=wrap;html=1;double=0;" parent="1" vertex="1">
          <mxGeometry x="90" y="355" width="67.5" height="65" as="geometry" />
        </mxCell>
        <mxCell id="7zp3B6DRQwShtKf0ib55-43" value="" style="endArrow=none;html=1;rounded=0;exitX=0.638;exitY=-0.025;exitDx=0;exitDy=0;entryX=0.5;entryY=1;entryDx=0;entryDy=0;exitPerimeter=0;" parent="1" source="7zp3B6DRQwShtKf0ib55-4" target="7zp3B6DRQwShtKf0ib55-38" edge="1">
          <mxGeometry width="50" height="50" relative="1" as="geometry">
            <mxPoint x="230" y="385" as="sourcePoint" />
            <mxPoint x="230" y="310" as="targetPoint" />
          </mxGeometry>
        </mxCell>
        <mxCell id="7zp3B6DRQwShtKf0ib55-44" value="1" style="edgeLabel;html=1;align=center;verticalAlign=middle;resizable=0;points=[];" parent="7zp3B6DRQwShtKf0ib55-43" vertex="1" connectable="0">
          <mxGeometry x="0.6267" y="-3" relative="1" as="geometry">
            <mxPoint x="22" y="30" as="offset" />
          </mxGeometry>
        </mxCell>
        <mxCell id="7zp3B6DRQwShtKf0ib55-45" value="serve" style="rhombus;whiteSpace=wrap;html=1;double=0;fillOpacity=100;" parent="1" vertex="1">
          <mxGeometry x="220" y="355" width="67.5" height="65" as="geometry" />
        </mxCell>
        <mxCell id="7zp3B6DRQwShtKf0ib55-46" value="" style="shape=link;html=1;rounded=0;exitX=0.75;exitY=0;exitDx=0;exitDy=0;entryX=0;entryY=1;entryDx=0;entryDy=0;" parent="1" source="7zp3B6DRQwShtKf0ib55-4" target="7zp3B6DRQwShtKf0ib55-45" edge="1">
          <mxGeometry width="100" relative="1" as="geometry">
            <mxPoint x="370" y="220" as="sourcePoint" />
            <mxPoint x="210" y="420" as="targetPoint" />
          </mxGeometry>
        </mxCell>
        <mxCell id="7zp3B6DRQwShtKf0ib55-49" value="M" style="edgeLabel;html=1;align=center;verticalAlign=middle;resizable=0;points=[];" parent="7zp3B6DRQwShtKf0ib55-46" vertex="1" connectable="0">
          <mxGeometry x="-0.4419" y="-2" relative="1" as="geometry">
            <mxPoint x="-8" y="-10" as="offset" />
          </mxGeometry>
        </mxCell>
        <mxCell id="7zp3B6DRQwShtKf0ib55-47" value="" style="endArrow=none;html=1;rounded=0;exitX=0.5;exitY=0;exitDx=0;exitDy=0;entryX=0.75;entryY=1;entryDx=0;entryDy=0;" parent="1" source="7zp3B6DRQwShtKf0ib55-45" target="7zp3B6DRQwShtKf0ib55-6" edge="1">
          <mxGeometry width="50" height="50" relative="1" as="geometry">
            <mxPoint x="400" y="250" as="sourcePoint" />
            <mxPoint x="450" y="200" as="targetPoint" />
          </mxGeometry>
        </mxCell>
        <mxCell id="7zp3B6DRQwShtKf0ib55-48" value="1" style="edgeLabel;html=1;align=center;verticalAlign=middle;resizable=0;points=[];" parent="7zp3B6DRQwShtKf0ib55-47" vertex="1" connectable="0">
          <mxGeometry x="0.4976" y="-1" relative="1" as="geometry">
            <mxPoint as="offset" />
          </mxGeometry>
        </mxCell>
        <mxCell id="7zp3B6DRQwShtKf0ib55-50" value="gives drug" style="rhombus;whiteSpace=wrap;html=1;" parent="1" vertex="1">
          <mxGeometry x="385" y="320" width="80" height="80" as="geometry" />
        </mxCell>
        <mxCell id="7zp3B6DRQwShtKf0ib55-51" value="" style="endArrow=none;html=1;rounded=0;exitX=1;exitY=0.25;exitDx=0;exitDy=0;entryX=0;entryY=0.5;entryDx=0;entryDy=0;" parent="1" source="7zp3B6DRQwShtKf0ib55-4" target="7zp3B6DRQwShtKf0ib55-50" edge="1">
          <mxGeometry width="50" height="50" relative="1" as="geometry">
            <mxPoint x="400" y="250" as="sourcePoint" />
            <mxPoint x="450" y="200" as="targetPoint" />
          </mxGeometry>
        </mxCell>
        <mxCell id="7zp3B6DRQwShtKf0ib55-53" value="M" style="edgeLabel;html=1;align=center;verticalAlign=middle;resizable=0;points=[];" parent="7zp3B6DRQwShtKf0ib55-51" vertex="1" connectable="0">
          <mxGeometry x="-0.7848" y="-4" relative="1" as="geometry">
            <mxPoint x="-12" y="-4" as="offset" />
          </mxGeometry>
        </mxCell>
        <mxCell id="HnIW9sH5pozRoHB7V5QB-4" value="M" style="edgeLabel;html=1;align=center;verticalAlign=middle;resizable=0;points=[];" parent="7zp3B6DRQwShtKf0ib55-51" vertex="1" connectable="0">
          <mxGeometry x="-0.6434" y="3" relative="1" as="geometry">
            <mxPoint x="-11" y="25" as="offset" />
          </mxGeometry>
        </mxCell>
        <mxCell id="7zp3B6DRQwShtKf0ib55-52" value="" style="endArrow=none;html=1;rounded=0;exitX=1;exitY=0.5;exitDx=0;exitDy=0;entryX=0;entryY=0.75;entryDx=0;entryDy=0;" parent="1" source="7zp3B6DRQwShtKf0ib55-50" target="7zp3B6DRQwShtKf0ib55-5" edge="1">
          <mxGeometry width="50" height="50" relative="1" as="geometry">
            <mxPoint x="400" y="250" as="sourcePoint" />
            <mxPoint x="450" y="200" as="targetPoint" />
          </mxGeometry>
        </mxCell>
        <mxCell id="7zp3B6DRQwShtKf0ib55-54" value="M" style="edgeLabel;html=1;align=center;verticalAlign=middle;resizable=0;points=[];" parent="7zp3B6DRQwShtKf0ib55-52" vertex="1" connectable="0">
          <mxGeometry x="0.641" y="1" relative="1" as="geometry">
            <mxPoint x="-10" y="-5" as="offset" />
          </mxGeometry>
        </mxCell>
        <mxCell id="HnIW9sH5pozRoHB7V5QB-5" value="M" style="edgeLabel;html=1;align=center;verticalAlign=middle;resizable=0;points=[];" parent="7zp3B6DRQwShtKf0ib55-52" vertex="1" connectable="0">
          <mxGeometry x="0.3265" y="-1" relative="1" as="geometry">
            <mxPoint x="25" as="offset" />
          </mxGeometry>
        </mxCell>
        <mxCell id="7zp3B6DRQwShtKf0ib55-55" value="date and time" style="ellipse;whiteSpace=wrap;html=1;" parent="1" vertex="1">
          <mxGeometry x="305" y="270" width="80" height="60" as="geometry" />
        </mxCell>
        <mxCell id="7zp3B6DRQwShtKf0ib55-56" value="dosage" style="ellipse;whiteSpace=wrap;html=1;" parent="1" vertex="1">
          <mxGeometry x="490" y="400" width="75" height="50" as="geometry" />
        </mxCell>
        <mxCell id="7zp3B6DRQwShtKf0ib55-57" value="" style="endArrow=none;html=1;rounded=0;exitX=1;exitY=1;exitDx=0;exitDy=0;entryX=0.013;entryY=0.32;entryDx=0;entryDy=0;entryPerimeter=0;" parent="1" source="7zp3B6DRQwShtKf0ib55-50" target="7zp3B6DRQwShtKf0ib55-56" edge="1">
          <mxGeometry width="50" height="50" relative="1" as="geometry">
            <mxPoint x="400" y="250" as="sourcePoint" />
            <mxPoint x="450" y="200" as="targetPoint" />
          </mxGeometry>
        </mxCell>
        <mxCell id="7zp3B6DRQwShtKf0ib55-58" value="" style="endArrow=none;html=1;rounded=0;exitX=0.5;exitY=0;exitDx=0;exitDy=0;entryX=1;entryY=0.5;entryDx=0;entryDy=0;" parent="1" source="7zp3B6DRQwShtKf0ib55-50" target="7zp3B6DRQwShtKf0ib55-55" edge="1">
          <mxGeometry width="50" height="50" relative="1" as="geometry">
            <mxPoint x="400" y="250" as="sourcePoint" />
            <mxPoint x="450" y="200" as="targetPoint" />
          </mxGeometry>
        </mxCell>
        <mxCell id="7zp3B6DRQwShtKf0ib55-60" value="recommended dosage" style="ellipse;whiteSpace=wrap;html=1;" parent="1" vertex="1">
          <mxGeometry x="490" y="500" width="100" height="60" as="geometry" />
        </mxCell>
        <mxCell id="7zp3B6DRQwShtKf0ib55-61" value="code number&lt;hr&gt;" style="ellipse;whiteSpace=wrap;html=1;" parent="1" vertex="1">
          <mxGeometry x="240" y="505" width="90" height="50" as="geometry" />
        </mxCell>
        <mxCell id="7zp3B6DRQwShtKf0ib55-62" value="brand name" style="ellipse;shape=doubleEllipse;whiteSpace=wrap;html=1;" parent="1" vertex="1">
          <mxGeometry x="375" y="600" width="100" height="60" as="geometry" />
        </mxCell>
        <mxCell id="7zp3B6DRQwShtKf0ib55-63" value="" style="endArrow=none;html=1;rounded=0;entryX=0.5;entryY=0;entryDx=0;entryDy=0;exitX=0.5;exitY=1;exitDx=0;exitDy=0;" parent="1" source="7zp3B6DRQwShtKf0ib55-3" target="7zp3B6DRQwShtKf0ib55-62" edge="1">
          <mxGeometry width="50" height="50" relative="1" as="geometry">
            <mxPoint x="400" y="350" as="sourcePoint" />
            <mxPoint x="450" y="300" as="targetPoint" />
          </mxGeometry>
        </mxCell>
        <mxCell id="7zp3B6DRQwShtKf0ib55-64" value="" style="endArrow=none;html=1;rounded=0;entryX=1;entryY=0.5;entryDx=0;entryDy=0;exitX=0;exitY=0.5;exitDx=0;exitDy=0;" parent="1" source="7zp3B6DRQwShtKf0ib55-60" target="7zp3B6DRQwShtKf0ib55-3" edge="1">
          <mxGeometry width="50" height="50" relative="1" as="geometry">
            <mxPoint x="400" y="350" as="sourcePoint" />
            <mxPoint x="450" y="300" as="targetPoint" />
          </mxGeometry>
        </mxCell>
        <mxCell id="7zp3B6DRQwShtKf0ib55-65" value="" style="endArrow=none;html=1;rounded=0;exitX=0;exitY=0.5;exitDx=0;exitDy=0;entryX=1;entryY=0.5;entryDx=0;entryDy=0;" parent="1" source="7zp3B6DRQwShtKf0ib55-3" target="7zp3B6DRQwShtKf0ib55-61" edge="1">
          <mxGeometry width="50" height="50" relative="1" as="geometry">
            <mxPoint x="400" y="350" as="sourcePoint" />
            <mxPoint x="450" y="300" as="targetPoint" />
          </mxGeometry>
        </mxCell>
        <mxCell id="HnIW9sH5pozRoHB7V5QB-1" value="" style="endArrow=none;html=1;rounded=0;exitX=0.5;exitY=0;exitDx=0;exitDy=0;entryX=0.5;entryY=1;entryDx=0;entryDy=0;" parent="1" source="7zp3B6DRQwShtKf0ib55-3" target="7zp3B6DRQwShtKf0ib55-50" edge="1">
          <mxGeometry width="50" height="50" relative="1" as="geometry">
            <mxPoint x="400" y="450" as="sourcePoint" />
            <mxPoint x="450" y="400" as="targetPoint" />
          </mxGeometry>
        </mxCell>
        <mxCell id="HnIW9sH5pozRoHB7V5QB-2" value="M" style="edgeLabel;html=1;align=center;verticalAlign=middle;resizable=0;points=[];" parent="HnIW9sH5pozRoHB7V5QB-1" vertex="1" connectable="0">
          <mxGeometry x="-0.6545" relative="1" as="geometry">
            <mxPoint x="15" y="7" as="offset" />
          </mxGeometry>
        </mxCell>
        <mxCell id="HnIW9sH5pozRoHB7V5QB-3" value="M" style="edgeLabel;html=1;align=center;verticalAlign=middle;resizable=0;points=[];" parent="HnIW9sH5pozRoHB7V5QB-1" vertex="1" connectable="0">
          <mxGeometry x="-0.7636" y="3" relative="1" as="geometry">
            <mxPoint x="-12" as="offset" />
          </mxGeometry>
        </mxCell>
        <mxCell id="9rYdHjrcT93f6RZKISob-1" value="" style="shape=link;html=1;rounded=0;entryX=0;entryY=0.25;entryDx=0;entryDy=0;exitX=1;exitY=0.5;exitDx=0;exitDy=0;" edge="1" parent="1" source="7zp3B6DRQwShtKf0ib55-17" target="7zp3B6DRQwShtKf0ib55-5">
          <mxGeometry width="100" relative="1" as="geometry">
            <mxPoint x="370" y="380" as="sourcePoint" />
            <mxPoint x="470" y="380" as="targetPoint" />
          </mxGeometry>
        </mxCell>
        <mxCell id="9rYdHjrcT93f6RZKISob-2" value="M" style="edgeLabel;html=1;align=center;verticalAlign=middle;resizable=0;points=[];" vertex="1" connectable="0" parent="9rYdHjrcT93f6RZKISob-1">
          <mxGeometry x="0.6254" y="-4" relative="1" as="geometry">
            <mxPoint y="-13" as="offset" />
          </mxGeometry>
        </mxCell>
        <mxCell id="9rYdHjrcT93f6RZKISob-4" value="" style="shape=link;html=1;rounded=0;exitX=0.25;exitY=1;exitDx=0;exitDy=0;entryX=0.5;entryY=0;entryDx=0;entryDy=0;" edge="1" parent="1" source="7zp3B6DRQwShtKf0ib55-6" target="7zp3B6DRQwShtKf0ib55-38">
          <mxGeometry width="100" relative="1" as="geometry">
            <mxPoint x="370" y="380" as="sourcePoint" />
            <mxPoint x="470" y="380" as="targetPoint" />
          </mxGeometry>
        </mxCell>
        <mxCell id="9rYdHjrcT93f6RZKISob-5" value="1" style="edgeLabel;html=1;align=center;verticalAlign=middle;resizable=0;points=[];" vertex="1" connectable="0" parent="9rYdHjrcT93f6RZKISob-4">
          <mxGeometry x="-0.4833" y="2" relative="1" as="geometry">
            <mxPoint as="offset" />
          </mxGeometry>
        </mxCell>
      </root>
    </mxGraphModel>
  </diagram>
</mxfile>
